<svg
  xmlns="http://www.w3.org/2000/svg"
  viewBox="0 0 64 64"
  fill="none"
>
  <rect width="64" height="64" rx="16" fill="#132238" />
  <path
    d="M18 22C18 18.6863 20.6863 16 24 16H28C31.3137 16 34 18.6863 34 22V26H40C43.3137 26 46 28.6863 46 32V40C46 43.3137 43.3137 46 40 46H24C20.6863 46 18 43.3137 18 40V22Z"
    fill="#F97316"
  />
  <path
    d="M24 20H28C29.1046 20 30 20.8954 30 22V26H22V22C22 20.8954 22.8954 20 24 20Z"
    fill="#FDBA74"
  />
  <path
    d="M22 30H42V40C42 41.1046 41.1046 42 40 42H24C22.8954 42 22 41.1046 22 40V30Z"
    fill="#FB923C"
  />
  <circle cx="32" cy="36" r="3" fill="#FFF7ED" />
</svg>
